<?xml version="1.0" encoding="utf-8"?>
<!-- Generator: Adobe Illustrator 27.1.1, SVG Export Plug-In . SVG Version: 6.00 Build 0)  -->
<svg version="1.1" id="レイヤー_1" xmlns="http://www.w3.org/2000/svg" xmlns:xlink="http://www.w3.org/1999/xlink" x="0px"
	 y="0px" viewBox="0 0 26.4 26.4" style="enable-background:new 0 0 26.4 26.4;" xml:space="preserve">
<style type="text/css">
	.st0{fill-rule:evenodd;clip-rule:evenodd;fill:#FFFFFF;}
	.st1{fill-rule:evenodd;clip-rule:evenodd;fill:#444466;}
	.st2{fill-rule:evenodd;clip-rule:evenodd;fill:#00FFDD;}
</style>
<path class="st0" d="M13.2,26.4C5.9,26.4,0,20.5,0,13.2C0,5.9,5.9,0,13.2,0c7.3,0,13.2,5.9,13.2,13.2C26.4,20.5,20.5,26.4,13.2,26.4
	z M13.2,1.9C7,1.9,1.9,7,1.9,13.2c0,6.2,5.1,11.3,11.3,11.3s11.3-5.1,11.3-11.3C24.5,7,19.4,1.9,13.2,1.9z M10,16.3L10,16.3
	l-3.4-3.4l1.8-1.8l3.4,3.4l6.1-6.1l1.8,1.8l-7.9,7.9L10,16.3z"/>
</svg>
