<?xml version="1.0" encoding="utf-8"?>
<!-- Generator: Adobe Illustrator 27.1.1, SVG Export Plug-In . SVG Version: 6.00 Build 0)  -->
<svg version="1.1" id="レイヤー_1" xmlns="http://www.w3.org/2000/svg" xmlns:xlink="http://www.w3.org/1999/xlink" x="0px"
	 y="0px" viewBox="0 0 26.2 26.2" style="enable-background:new 0 0 26.2 26.2;" xml:space="preserve">
<style type="text/css">
	.st0{fill-rule:evenodd;clip-rule:evenodd;fill:#FFFFFF;}
	.st1{fill-rule:evenodd;clip-rule:evenodd;fill:#444466;}
	.st2{fill-rule:evenodd;clip-rule:evenodd;fill:#00FFDD;}
</style>
<path class="st0" d="M13.1,26.2C5.9,26.2,0,20.3,0,13.1C0,5.9,5.9,0,13.1,0c7.2,0,13.1,5.9,13.1,13.1C26.2,20.3,20.3,26.2,13.1,26.2
	z M13.1,1.9c-6.2,0-11.2,5-11.2,11.2s5,11.2,11.2,11.2s11.2-5,11.2-11.2S19.2,1.9,13.1,1.9z M11.6,17.5h2.9v2.9h-2.9V17.5z
	 M11.6,5.7h2.9v10.1h-2.9V5.7z"/>
</svg>
