<?xml version="1.0" encoding="utf-8"?>
<!-- Generator: Adobe Illustrator 27.1.1, SVG Export Plug-In . SVG Version: 6.00 Build 0)  -->
<svg version="1.1" id="レイヤー_1" xmlns="http://www.w3.org/2000/svg" xmlns:xlink="http://www.w3.org/1999/xlink" x="0px"
	 y="0px" viewBox="0 0 25.8 25.8" style="enable-background:new 0 0 25.8 25.8;" xml:space="preserve">
<style type="text/css">
	.st0{fill-rule:evenodd;clip-rule:evenodd;fill:#FFFFFF;}
	.st1{fill-rule:evenodd;clip-rule:evenodd;fill:#444466;}
	.st2{fill-rule:evenodd;clip-rule:evenodd;fill:#00FFDD;}
</style>
<path class="st0" d="M12.9,25.8C5.8,25.8,0,20,0,12.9C0,5.8,5.8,0,12.9,0C20,0,25.8,5.8,25.8,12.9C25.8,20,20,25.8,12.9,25.8z
	 M12.9,1.9c-6.1,0-11,4.9-11,11c0,6.1,4.9,11,11,11c6.1,0,11-4.9,11-11C23.9,6.8,19,1.9,12.9,1.9z M13.8,7.8h3.4V18h-3.4V7.8z
	 M8.6,7.8H12V18H8.6V7.8z"/>
</svg>
